<?xml version="1.0" standalone="no"?>
<!DOCTYPE svg PUBLIC "-//W3C//DTD SVG 20010904//EN"
 "http://www.w3.org/TR/2001/REC-SVG-20010904/DTD/svg10.dtd">
<svg version="1.0" xmlns="http://www.w3.org/2000/svg"
 width="643.000000pt" height="544.000000pt" viewBox="0 0 643.000000 544.000000"
 preserveAspectRatio="xMidYMid meet">

<g transform="translate(0.000000,544.000000) scale(0.100000,-0.100000)"
fill="#000000" stroke="none">
<path d="M1536 5161 c-12 -89 -72 -151 -154 -159 -60 -5 -93 10 -150 72 l-43
46 -79 -46 c-44 -25 -80 -49 -80 -54 0 -4 9 -27 20 -51 36 -80 23 -138 -45
-197 -48 -43 -70 -46 -168 -30 l-85 14 -50 -84 -50 -85 46 -31 c81 -55 103
-139 60 -226 -29 -57 -84 -90 -150 -90 l-48 0 0 -110 0 -110 34 0 c80 0 144
-44 172 -117 31 -81 0 -163 -81 -213 l-35 -22 31 -56 c18 -32 41 -69 51 -84
l18 -26 50 19 c88 33 139 22 198 -45 47 -54 55 -97 32 -165 -11 -31 -21 -60
-23 -65 -1 -5 38 -32 87 -62 l90 -52 39 44 c67 76 130 93 213 55 55 -25 81
-62 96 -132 l12 -59 108 0 108 0 0 38 c0 59 38 122 89 149 83 43 169 23 223
-51 16 -23 32 -41 36 -41 8 0 162 85 162 89 0 1 -7 24 -16 50 -20 58 -14 128
13 165 52 69 123 87 217 55 26 -9 49 -15 50 -13 2 2 27 43 55 91 l51 87 -49
48 c-36 35 -51 59 -57 88 -9 49 9 122 39 154 29 31 94 61 135 61 l32 0 0 108
0 108 -60 12 c-72 15 -122 58 -139 117 -22 80 -6 132 58 187 22 19 41 38 41
42 0 4 -21 43 -46 86 l-46 80 -31 -17 c-48 -25 -148 -24 -184 3 -72 53 -89
122 -56 223 9 28 14 53 12 55 -2 1 -43 26 -91 54 l-88 51 -21 -31 c-12 -16
-40 -43 -62 -59 -61 -44 -149 -38 -206 14 -31 29 -61 94 -61 135 l0 32 -109 0
-108 0 -7 -49z m243 -486 c199 -47 369 -217 416 -416 98 -419 -274 -785 -689
-679 -109 28 -170 63 -256 150 -142 142 -195 315 -155 505 46 214 206 384 415
439 72 19 189 19 269 1z"/>
<path d="M4250 5133 c0 -144 -145 -242 -251 -170 -31 21 -92 92 -101 117 -2 7
-40 -2 -105 -26 -99 -37 -102 -39 -95 -64 4 -14 7 -52 7 -85 0 -72 -25 -115
-85 -145 -70 -36 -151 -18 -209 44 -14 14 -28 26 -33 26 -5 0 -38 -24 -74 -52
-53 -42 -64 -56 -59 -73 41 -125 36 -161 -28 -222 -63 -60 -103 -65 -217 -27
-10 3 -33 -22 -72 -80 -32 -47 -58 -87 -58 -89 0 -3 16 -28 35 -56 44 -67 52
-109 30 -166 -28 -75 -109 -123 -191 -113 -26 3 -34 0 -38 -17 -3 -11 -17 -60
-30 -108 l-25 -88 23 -8 c37 -15 88 -63 102 -98 19 -44 17 -90 -5 -139 -23
-50 -61 -82 -118 -97 -49 -13 -49 -13 -37 -160 6 -70 9 -77 29 -77 11 0 44
-12 72 -26 40 -19 57 -35 72 -68 26 -53 27 -121 2 -162 -15 -24 -69 -74 -99
-90 -1 -1 14 -46 35 -102 l37 -100 75 -4 c89 -4 127 -25 157 -85 30 -61 25
-123 -13 -177 -18 -26 -33 -49 -33 -52 0 -7 100 -134 105 -134 1 0 20 7 41 16
94 40 149 35 209 -17 18 -16 41 -50 50 -74 16 -40 16 -47 1 -99 -9 -30 -21
-58 -26 -61 -6 -3 -10 -10 -10 -14 0 -8 164 -121 176 -121 3 0 26 17 50 39 81
71 166 72 235 2 30 -30 38 -47 48 -106 7 -38 15 -77 17 -86 3 -10 33 -24 85
-38 44 -12 86 -24 93 -27 9 -3 22 11 36 40 76 157 261 149 321 -15 l22 -59
108 0 c106 0 109 1 109 23 0 104 82 187 184 187 49 0 124 -57 155 -118 14 -26
11 -26 134 20 l78 30 -7 59 c-10 85 14 142 74 180 72 46 132 38 220 -28 l33
-25 37 26 c20 15 52 39 70 55 l33 28 -23 39 c-16 27 -22 54 -23 95 0 65 18 98
76 138 32 22 40 23 135 17 l101 -6 52 78 51 78 -40 44 c-67 73 -76 144 -26
220 33 50 79 70 159 70 l65 0 27 100 c16 55 27 101 24 103 -2 1 -29 19 -60 39
-61 39 -89 84 -89 140 0 39 29 106 56 130 27 24 88 48 120 48 26 0 27 1 20 46
-3 26 -6 75 -6 110 l0 63 -54 11 c-109 22 -160 82 -154 181 5 67 31 108 92
144 l44 25 -38 97 -37 97 -87 0 -87 1 -39 41 c-72 77 -74 161 -5 241 l35 41
-51 63 c-28 35 -52 66 -54 68 -2 2 -28 -8 -56 -23 -97 -48 -181 -29 -236 53
-29 43 -30 103 -3 171 11 28 18 55 15 59 -2 5 -41 32 -85 61 l-80 53 -45 -42
c-25 -23 -57 -46 -73 -52 -66 -26 -153 1 -197 59 -16 22 -20 43 -20 110 l0 83
-55 15 c-30 9 -77 22 -103 29 -47 14 -48 14 -57 -10 -21 -54 -64 -105 -107
-126 -104 -50 -213 17 -239 149 l-6 32 -109 0 -109 0 0 -27z m336 -654 c499
-69 899 -462 975 -959 17 -111 6 -346 -20 -443 -89 -335 -303 -599 -604 -747
-370 -182 -792 -155 -1137 72 -82 54 -216 182 -281 268 -58 76 -127 206 -162
305 -82 232 -83 506 -2 745 173 507 700 833 1231 759z"/>
<path d="M4230 4366 c-487 -103 -830 -521 -830 -1011 0 -477 306 -879 767
-1007 67 -19 104 -22 263 -22 158 0 196 3 262 21 254 71 465 220 601 425 109
163 164 329 173 523 25 488 -277 911 -751 1051 -78 23 -112 27 -255 30 -113 2
-185 -1 -230 -10z m405 -326 c430 -135 637 -591 450 -995 -164 -356 -586 -512
-950 -351 -120 54 -236 156 -314 276 -171 264 -136 628 81 866 97 106 238 187
382 220 88 20 261 12 351 -16z"/>
<path d="M1821 3052 c-37 -104 -124 -152 -215 -122 -41 13 -100 78 -116 126
-7 19 -17 34 -23 34 -7 0 -54 -10 -104 -22 l-93 -22 2 -67 c1 -87 -22 -134
-82 -166 -64 -34 -103 -30 -193 21 l-77 44 -59 -43 c-72 -53 -76 -59 -57 -87
51 -80 42 -162 -24 -222 -51 -46 -77 -52 -173 -36 -67 11 -81 11 -88 -1 -4 -8
-27 -45 -51 -83 l-44 -69 52 -52 c59 -59 72 -98 54 -164 -22 -84 -91 -131
-192 -131 l-44 0 -15 -105 -15 -105 36 -10 c80 -22 150 -101 150 -170 0 -51
-42 -113 -99 -147 -30 -18 -59 -34 -64 -36 -6 -2 -1 -41 15 -103 l24 -99 40 2
c100 6 177 -38 203 -116 21 -63 8 -105 -61 -211 -16 -24 -16 -27 33 -92 l50
-67 52 20 c88 35 157 17 213 -56 36 -48 42 -109 16 -168 l-20 -45 94 -57 94
-57 41 41 c69 69 152 75 233 18 36 -25 65 -90 66 -144 0 -46 -6 -43 120 -63
95 -15 95 -15 109 30 16 53 71 107 116 116 54 10 119 -1 152 -24 22 -16 76
-98 78 -119 1 -4 196 45 201 50 3 3 8 31 10 61 7 109 72 176 169 176 45 0 80
-14 127 -51 l38 -31 71 53 c49 36 69 57 65 68 -2 9 -12 36 -21 61 -20 55 -15
100 19 150 43 66 126 87 216 55 24 -8 44 -14 46 -13 1 2 27 43 57 91 l56 89
-44 41 c-56 55 -71 104 -50 173 24 83 83 124 174 124 l48 0 12 88 c7 48 14 96
17 108 4 17 -2 23 -36 33 -49 14 -103 60 -120 101 -17 41 -8 134 16 168 11 15
43 38 72 52 28 14 51 32 51 40 0 8 -10 56 -23 105 l-23 90 -36 -3 c-82 -6
-153 31 -187 99 -36 69 -24 139 36 199 l34 36 -46 64 c-26 36 -50 69 -55 74
-5 5 -33 -2 -67 -17 -89 -40 -138 -34 -199 25 -57 55 -66 129 -25 214 20 42
27 33 -97 111 l-66 41 -34 -39 c-64 -76 -139 -96 -217 -58 -59 28 -86 74 -92
159 l-5 68 -81 12 c-44 6 -90 14 -102 16 -18 5 -24 -3 -43 -54z m84 -697 c339
-92 573 -439 526 -781 -43 -307 -251 -541 -550 -615 -69 -18 -105 -20 -195
-17 -197 9 -341 73 -481 213 -139 139 -209 308 -208 505 0 124 18 201 73 315
98 202 287 345 521 395 62 13 242 4 314 -15z"/>
</g>
</svg>
